<?xml version="1.0" encoding="UTF-8"?>
<svg id="_图层_1" data-name="图层 1" xmlns="http://www.w3.org/2000/svg" viewBox="0 0 67.3 64.43">
  <defs>
    <style>
      .cls-1 {
        opacity: .9;
      }

      .cls-2 {
        opacity: .3;
      }

      .cls-3 {
        fill: #fff;
      }

      .cls-4 {
        fill: #bfbfbf;
      }
    </style>
  </defs>
  <g>
    <g class="cls-2">
      <path class="cls-4" d="M38.51,42h.05c.77-2.34,1.34-4.22,1.73-5.62l2.46-8.88h-7.98l2.25,8.83c.83,3.31,1.32,5.2,1.48,5.67Z"/>
    </g>
    <g class="cls-2">
      <polygon class="cls-4" points="44.64 27.5 39.71 43.97 37.32 43.97 32.95 27.5 30.37 27.5 30.37 64.43 67.3 64.43 67.3 27.5 44.64 27.5"/>
    </g>
  </g>
  <g>
    <g class="cls-1">
      <path class="cls-3" d="M0,0v59.75h59.75V0H0ZM39.71,43.98h-2.39l-6.05-22.8c-.81-3-1.27-5.06-1.38-6.19h-.12c-.19,1.17-.66,3.23-1.43,6.19l-6.05,22.8h-2.34L10.67,12.64h5.07s6.44,25.48,6.44,25.48c.07-.24.15-.48.23-.73l.3-1.05,6-23.7h1.16s17.26,0,17.26,0h0s1.95,0,1.95,0l-9.38,31.34Z"/>
    </g>
    <g class="cls-1">
      <path class="cls-3" d="M32.2,17.38l4.84,18.96c.83,3.31,1.32,5.2,1.48,5.67h.05c.77-2.34,1.34-4.22,1.73-5.62l5.27-19.01h-13.37Z"/>
    </g>
  </g>
</svg>